<svg
	width="14"
	height="13"
	viewBox="0 0 14 13"
	fill="none"
	xmlns="http://www.w3.org/2000/svg"
>
	<path
		d="M4.56088 12.8333C4.50737 12.8333 4.45478 12.8193 4.40833 12.7927C4.36189 12.7661 4.3232 12.7279 4.29611 12.6817C3.14852 10.7263 0.0904802 6.56467 0.0597171 6.52285C0.016024 6.46345 -0.00483723 6.39031 0.000946535 6.31679C0.0067303 6.24328 0.0387728 6.1743 0.091217 6.12247L1.03124 5.19345C1.08231 5.14298 1.14945 5.112 1.22099 5.10591C1.29253 5.09982 1.36394 5.11899 1.42281 5.1601L4.49687 7.30697C6.54062 4.68108 8.43988 2.86889 9.68821 1.80111C11.0874 0.604085 11.977 0.0662029 12.0142 0.0437873C12.062 0.0151383 12.1166 2.82097e-06 12.1722 4.1131e-09H13.6929C13.7552 -1.01826e-05 13.816 0.0189017 13.8672 0.054228C13.9185 0.0895544 13.9578 0.139626 13.9799 0.197805C14.0021 0.255984 14.006 0.319522 13.9912 0.379993C13.9764 0.440465 13.9436 0.495014 13.8971 0.536409C11.6427 2.5446 9.29879 5.73539 7.72954 8.05841C6.02366 10.5835 4.83944 12.6576 4.82768 12.6782C4.80102 12.725 4.76253 12.764 4.71605 12.7912C4.66958 12.8184 4.61677 12.833 4.56291 12.8333L4.56088 12.8333Z"
		fill="#D9D9D9"
	/>
	<path
		d="M4.56088 12.8333C4.50737 12.8333 4.45478 12.8193 4.40833 12.7927C4.36189 12.7661 4.3232 12.7279 4.29611 12.6817C3.14852 10.7263 0.0904802 6.56467 0.0597171 6.52285C0.016024 6.46345 -0.00483723 6.39031 0.000946535 6.31679C0.0067303 6.24328 0.0387728 6.1743 0.091217 6.12247L1.03124 5.19345C1.08231 5.14298 1.14945 5.112 1.22099 5.10591C1.29253 5.09982 1.36394 5.11899 1.42281 5.1601L4.49687 7.30697C6.54062 4.68108 8.43988 2.86889 9.68821 1.80111C11.0874 0.604085 11.977 0.0662029 12.0142 0.0437873C12.062 0.0151383 12.1166 2.82097e-06 12.1722 4.1131e-09H13.6929C13.7552 -1.01826e-05 13.816 0.0189017 13.8672 0.054228C13.9185 0.0895544 13.9578 0.139626 13.9799 0.197805C14.0021 0.255984 14.006 0.319522 13.9912 0.379993C13.9764 0.440465 13.9436 0.495014 13.8971 0.536409C11.6427 2.5446 9.29879 5.73539 7.72954 8.05841C6.02366 10.5835 4.83944 12.6576 4.82768 12.6782C4.80102 12.725 4.76253 12.764 4.71605 12.7912C4.66958 12.8184 4.61677 12.833 4.56291 12.8333L4.56088 12.8333Z"
		fill="#EEEEFE"
	/>
</svg>
