<svg width="22" height="22" viewBox="0 0 22 22" fill="none" xmlns="http://www.w3.org/2000/svg">
<path d="M11.9204 0.783084V3.98122C11.9199 4.3483 12.1733 4.66682 12.5311 4.74853C14.8836 5.2875 16.7165 7.12098 17.2545 9.47367C17.3367 9.83023 17.6542 10.0829 18.0202 10.0829H21.2138C21.6961 10.0829 22.0648 9.65255 21.9904 9.17604C21.2531 4.45674 17.546 0.749006 12.8275 0.00817843C12.2978 -0.0646068 11.9204 0.353512 11.9204 0.783219V0.783084ZM13.4919 1.74576C16.8128 2.62231 19.388 5.23277 20.2514 8.51154H18.621C17.8484 6.09365 15.9466 4.16494 13.4918 3.37962L13.4919 1.74576Z" fill="#02D0C8"/>
<path d="M9.30749 0.145144C3.96096 0.9777 0.00718379 5.58866 0 10.9994C0 17.0652 4.93436 21.9996 11.0002 21.9996C16.4136 21.9957 21.0296 18.0409 21.8621 12.6921C21.9368 12.2156 21.5679 11.7852 21.0856 11.7852H17.8875C17.5206 11.7855 17.2028 12.0397 17.1217 12.3975C16.4695 15.2588 13.9347 17.2815 11.0003 17.2851C7.5199 17.2851 4.71535 14.4811 4.71445 11.0011C4.71445 7.76876 7.05075 5.43995 9.60346 4.88097C9.96125 4.79924 10.2148 4.48056 10.2143 4.11365V0.92005C10.2143 0.31778 9.64095 0.0782002 9.3074 0.145009L9.30749 0.145144Z" fill="#02D0C8"/>
</svg>
