<svg
	width="23"
	height="23"
	viewBox="0 0 23 23"
	fill="none"
	xmlns="http://www.w3.org/2000/svg"
>
	<path
		fill-rule="evenodd"
		clip-rule="evenodd"
		d="M20.0003 21.9972L19.9813 18.8514C19.9799 18.5448 19.7989 18.2699 19.5243 18.1548C19.2496 18.0388 18.9348 18.1063 18.7275 18.3252C17.0005 20.1388 14.5985 21.2641 11.9442 21.2641C6.68958 21.2641 2.42347 16.8527 2.42347 11.4193C2.42347 9.91007 2.75238 8.47947 3.34039 7.20038C3.514 6.82325 3.3587 6.37125 2.99399 6.1917C2.62846 6.01219 2.19132 6.17277 2.01773 6.5499C1.33881 8.02662 0.95874 9.67744 0.95874 11.4191C0.95874 17.6886 5.88104 22.7785 11.9441 22.7785C14.4123 22.7785 16.6911 21.935 18.5258 20.5121C18.5264 20.5121 18.5353 22.0062 18.5353 22.0062C18.5374 22.4242 18.8678 22.7611 19.272 22.7589C19.6763 22.7567 20.0021 22.4151 20 21.9971L20.0003 21.9972ZM11.9443 3.06959C7.50832 3.06959 3.9072 6.79319 3.9072 11.3804C3.9072 15.9674 7.50836 19.6907 11.9443 19.6907C16.3803 19.6907 19.9815 15.9671 19.9815 11.3804C19.9815 6.79332 16.3803 3.06959 11.9443 3.06959ZM3.9072 0.793154L3.88824 3.99799C3.88677 4.30632 4.06626 4.58487 4.34155 4.70305C4.61766 4.82053 4.9348 4.75309 5.14355 4.53266C6.87196 2.70771 9.28138 1.57466 11.944 1.57466C17.1986 1.57466 21.4647 5.98602 21.4647 11.4195C21.4647 12.9213 21.1388 14.3457 20.5558 15.6197C20.383 15.9975 20.539 16.4496 20.9045 16.6283C21.2699 16.807 21.7072 16.6457 21.88 16.2678C22.553 14.7971 22.9294 13.153 22.9294 11.4193C22.9294 5.14979 18.0071 0.0598968 11.944 0.0598968C9.4759 0.0598968 7.1975 0.902876 5.36325 2.32586L5.37192 0.802134C5.37421 0.384097 5.04824 0.0424573 4.64395 0.0402936C4.23966 0.0381299 3.90946 0.374993 3.9072 0.793046L3.9072 0.793154ZM11.212 6.85628V11.3806C11.212 11.5804 11.2882 11.7728 11.4251 11.9144L14.3546 14.9632C14.6394 15.2594 15.103 15.2609 15.39 14.9662C15.6764 14.6718 15.6779 14.1924 15.393 13.8956L12.6767 11.0686V6.85643C12.6767 6.43839 12.3486 6.09913 11.9443 6.09913C11.5401 6.09913 11.212 6.43839 11.212 6.85643L11.212 6.85628Z"
		fill="#F3C062"
	/>
</svg>
