<svg
	width="22"
	height="23"
	viewBox="0 0 22 23"
	fill="none"
	xmlns="http://www.w3.org/2000/svg"
>
	<path
		d="M15.7536 4.45097C15.6688 4.19046 15.4434 4.00045 15.1727 3.96113L12.5952 3.58653L11.4422 1.25068C11.3213 1.00516 11.0711 0.849609 10.797 0.849609C10.523 0.849609 10.2727 1.00516 10.1519 1.25068L8.99881 3.58658L6.42096 3.96118C6.15013 4.00054 5.92476 4.1905 5.83998 4.45102C5.75521 4.71154 5.82593 4.99758 6.02225 5.18874L7.88799 7.00691L7.44713 9.57403C7.40073 9.84413 7.5118 10.1171 7.73343 10.278C7.95554 10.4397 8.24931 10.4596 8.49153 10.3329L10.7972 9.12075L13.1024 10.3329C13.3502 10.4628 13.6429 10.436 13.8605 10.278C14.0821 10.1171 14.1932 9.84417 14.1468 9.57428L13.7064 7.00691L15.5717 5.18874C15.7677 4.99758 15.838 4.71149 15.7536 4.45097Z"
		fill="#6E6FA6"
	/>
	<path
		d="M13.6743 11.8145H7.91695C7.51949 11.8145 7.19727 12.1367 7.19727 12.5341V22.8494H14.394V12.5341C14.394 12.1367 14.0718 11.8145 13.6743 11.8145Z"
		fill="#6E6FA6"
	/>
	<path
		d="M0.71968 14.6934C0.322221 14.6934 0 15.0156 0 15.413V22.2807C0 22.5949 0.25476 22.8496 0.568989 22.8496H5.7574V14.6934H0.71968Z"
		fill="#6E6FA6"
	/>
	<path
		d="M20.8717 17.5723H15.834V22.8499H21.0224C21.3367 22.8499 21.5914 22.5951 21.5914 22.2809V18.2919C21.5913 17.8945 21.2691 17.5723 20.8717 17.5723Z"
		fill="#6E6FA6"
	/>
</svg>
