<svg
	width="16"
	height="16"
	viewBox="0 0 16 16"
	fill="none"
	xmlns="http://www.w3.org/2000/svg"
>
	<path
		d="M5.30451 0.629957C4.56581 0.456681 3.79703 0.456681 3.05833 0.629957C2.09084 0.856899 1.33542 1.61232 1.10847 2.57981C0.935197 3.31852 0.935197 4.08729 1.10847 4.82599C1.33542 5.79349 2.09084 6.54891 3.05833 6.77585C3.79703 6.94913 4.56581 6.94913 5.30451 6.77585C6.272 6.54891 7.02742 5.79348 7.25437 4.82599C7.42764 4.08729 7.42764 3.31852 7.25437 2.57982C7.02742 1.61233 6.272 0.856899 5.30451 0.629957Z"
		fill="#6E6FA6"
	/>
	<path
		d="M5.30451 9.22415C4.56581 9.05087 3.79703 9.05087 3.05833 9.22415C2.09084 9.45109 1.33542 10.2065 1.10847 11.174C0.935197 11.9127 0.935197 12.6815 1.10847 13.4202C1.33542 14.3877 2.09084 15.1431 3.05833 15.37C3.79703 15.5433 4.56581 15.5433 5.30451 15.37C6.272 15.1431 7.02742 14.3877 7.25437 13.4202C7.42764 12.6815 7.42764 11.9127 7.25437 11.174C7.02742 10.2065 6.272 9.45109 5.30451 9.22415Z"
		fill="#6E6FA6"
	/>
	<path
		d="M13.8987 0.629957C13.16 0.456681 12.3912 0.456681 11.6525 0.629957C10.685 0.856899 9.92961 1.61232 9.70266 2.57981C9.52939 3.31852 9.52939 4.08729 9.70266 4.82599C9.92961 5.79349 10.685 6.54891 11.6525 6.77585C12.3912 6.94913 13.16 6.94913 13.8987 6.77585C14.8662 6.54891 15.6216 5.79348 15.8486 4.82599C16.0218 4.08729 16.0218 3.31852 15.8486 2.57982C15.6216 1.61233 14.8662 0.856899 13.8987 0.629957Z"
		fill="#6E6FA6"
	/>
	<path
		d="M13.8987 9.22415C13.16 9.05087 12.3912 9.05087 11.6525 9.22415C10.685 9.45109 9.92961 10.2065 9.70266 11.174C9.52939 11.9127 9.52939 12.6815 9.70266 13.4202C9.92961 14.3877 10.685 15.1431 11.6525 15.37C12.3912 15.5433 13.16 15.5433 13.8987 15.37C14.8662 15.1431 15.6216 14.3877 15.8486 13.4202C16.0218 12.6815 16.0218 11.9127 15.8486 11.174C15.6216 10.2065 14.8662 9.45109 13.8987 9.22415Z"
		fill="#6E6FA6"
	/>
</svg>
