<svg
	width="22"
	height="21"
	viewBox="0 0 22 21"
	fill="none"
	xmlns="http://www.w3.org/2000/svg"
>
	<path
		d="M15.8545 6.79875C15.7933 6.79 15.732 6.79 15.6708 6.79875C14.3145 6.755 13.2383 5.64375 13.2383 4.27875C13.2383 2.8875 14.367 1.75 15.767 1.75C17.1583 1.75 18.2958 2.87875 18.2958 4.27875C18.287 5.64375 17.2108 6.755 15.8545 6.79875Z"
		fill="#6E6FA6"
	/>
	<path
		d="M18.7073 12.8629C17.7273 13.5191 16.3535 13.7641 15.0848 13.5979C15.4173 12.8804 15.5923 12.0841 15.601 11.2441C15.601 10.3691 15.4085 9.53785 15.041 8.8116C16.336 8.6366 17.7098 8.8816 18.6985 9.53785C20.081 10.4479 20.081 11.9441 18.7073 12.8629Z"
		fill="#6E6FA6"
	/>
	<path
		d="M6.1493 6.79875C6.21055 6.79 6.2718 6.79 6.33305 6.79875C7.6893 6.755 8.76555 5.64375 8.76555 4.27875C8.76555 2.87875 7.6368 1.75 6.2368 1.75C4.84555 1.75 3.7168 2.87875 3.7168 4.27875C3.7168 5.64375 4.79305 6.755 6.1493 6.79875Z"
		fill="#6E6FA6"
	/>
	<path
		d="M6.24734 11.2443C6.24734 12.093 6.43109 12.898 6.76359 13.6243C5.52984 13.7555 4.24359 13.493 3.29859 12.8718C1.91609 11.953 1.91609 10.4568 3.29859 9.53802C4.23484 8.90802 5.55609 8.65427 6.79859 8.79427C6.43984 9.52927 6.24734 10.3605 6.24734 11.2443Z"
		fill="#6E6FA6"
	/>
	<path
		d="M11.1218 13.8863C11.0518 13.8775 10.973 13.8775 10.8943 13.8863C9.2843 13.8338 7.99805 12.5125 7.99805 10.885C8.0068 9.2225 9.34555 7.875 11.0168 7.875C12.6793 7.875 14.0268 9.2225 14.0268 10.885C14.018 12.5125 12.7405 13.8338 11.1218 13.8863Z"
		fill="#6E6FA6"
	/>
	<path
		d="M8.27609 15.698C6.95484 16.5818 6.95484 18.0343 8.27609 18.9093C9.78109 19.9155 12.2486 19.9155 13.7536 18.9093C15.0748 18.0255 15.0748 16.573 13.7536 15.698C12.2573 14.6918 9.78984 14.6918 8.27609 15.698Z"
		fill="#6E6FA6"
	/>
</svg>
