<svg
	width="25"
	height="17"
	viewBox="0 0 25 17"
	fill="none"
	xmlns="http://www.w3.org/2000/svg"
>
	<path
		d="M6.28906 13.4424C7.75689 15.2119 9.97428 16.3413 12.4535 16.3413C14.9327 16.3413 17.1493 15.2119 18.6164 13.4424C16.7999 13.8316 14.6935 14.0528 12.4535 14.0528C10.2103 14.0528 8.10705 13.8316 6.28906 13.4424Z"
		fill="#6E6FA6"
	/>
	<path
		d="M20.5246 4.93522C20.6622 5.25802 20.781 5.58942 20.8787 5.93019C21.7205 6.25768 22.2121 6.63675 22.2121 7.04318C22.2121 7.51526 21.561 7.95061 20.452 8.30858C20.4348 3.90586 16.859 0.341797 12.4531 0.341797C8.04572 0.341797 4.4715 3.90586 4.4543 8.30936C3.34444 7.95061 2.69337 7.51448 2.69337 7.04318C2.69337 6.63753 3.18578 6.2569 4.02677 5.93019C4.12525 5.58942 4.24483 5.25802 4.38161 4.93444C1.70231 5.7559 0 6.97753 0 8.34219C0 8.51961 0.0281374 8.6939 0.0836305 8.86507C0.803478 11.0926 6.06751 12.8199 12.4531 12.8199C18.8372 12.8199 24.1028 11.0926 24.8242 8.86507C24.8781 8.69234 24.907 8.51961 24.907 8.34219C24.9055 6.97753 23.2039 5.75668 20.5246 4.93522Z"
		fill="#6E6FA6"
	/>
</svg>
