<svg width="17" height="19" viewBox="0 0 17 19" fill="none" xmlns="http://www.w3.org/2000/svg">
<path d="M13.3068 16.6112L11.4976 14.802C11.3784 14.6832 11.3046 14.5185 11.3046 14.3364C11.3046 13.9729 11.5997 13.6778 11.9632 13.6778C12.1453 13.6778 12.31 13.7516 12.4288 13.8708L14.263 15.705C15.4903 14.3549 16.3057 12.6254 16.5174 10.7141H13.6097C13.2462 10.7141 12.9511 10.4191 12.9511 10.0555C12.9511 9.69197 13.2462 9.39692 13.6097 9.39692H16.5586C16.4848 7.39148 15.7521 5.5576 14.564 4.10506L12.4288 6.24024C12.31 6.35945 12.1453 6.43321 11.9632 6.43321C11.5997 6.43321 11.3046 6.13816 11.3046 5.77461C11.3046 5.59251 11.3784 5.42786 11.4976 5.30898L13.6558 3.15075C12.4298 2.03641 10.8969 1.25399 9.19247 0.962891C7.69317 1.89185 6.6944 3.55184 6.6944 5.44531C6.6944 6.02027 6.85346 6.57415 7.0237 7.09181C8.66066 7.09181 9.9874 8.56609 9.9874 10.3848C9.9874 12.0218 8.66066 13.3485 7.0237 13.3485C5.01826 13.3485 3.31216 11.8397 2.67793 9.73247C1.66665 9.75091 0.771609 10.2205 0.179857 10.9542C0.134413 11.2525 0.108398 11.5575 0.108398 11.8667C0.108398 12.8743 0.358008 13.829 0.801575 14.6875L1.61824 13.8708C1.73745 13.7516 1.9021 13.6778 2.0842 13.6778C2.44775 13.6778 2.7428 13.9729 2.7428 14.3364C2.7428 14.5185 2.66904 14.6832 2.54983 14.802L1.53921 15.8127C2.67035 17.2092 4.38502 18.2037 6.3651 18.5133V16.3122C6.3651 15.9487 6.66016 15.6536 7.0237 15.6536C7.38725 15.6536 7.6823 15.9487 7.6823 16.3122V18.6173C9.8165 18.6173 11.7745 17.8649 13.3068 16.6112Z" fill="#6E6FA6"/>
</svg>
