<svg
	height="24"
	width="24"
	xmlns="http://www.w3.org/2000/svg"
	viewBox="0 0 24 24"
>
	<path
		d="M12,0A12,12,0,1,0,24,12,12,12,0,0,0,12,0Zm7.49,18.24a9.75,9.75,0,0,1-15,0,.23.23,0,0,1,0-.21.26.26,0,0,1,.12-.17,33.79,33.79,0,0,1,4-1.67l.68-.25c.21-.07.38-.34.47-.72a2.19,2.19,0,0,0-.24-1.75c-.84-.93-1.66-2.07-1.66-4.92A4,4,0,0,1,12,4.15a4,4,0,0,1,4.14,4.4c0,2.85-.82,4-1.66,4.92a2.15,2.15,0,0,0-.25,1.75,1,1,0,0,0,.48.72l.67.25a33.11,33.11,0,0,1,4,1.67.26.26,0,0,1,.12.17A.23.23,0,0,1,19.49,18.24Z"
	></path>
</svg>
