<svg width="24" height="21" viewBox="0 0 24 21" fill="none" xmlns="http://www.w3.org/2000/svg">
<path d="M21.0735 0.307617C20.0675 0.307617 19.1885 0.862503 18.7266 1.68222C18.2648 0.862503 17.3859 0.307617 16.3797 0.307617H14.2216V2.92551C14.2216 4.40966 15.4291 5.61712 16.9133 5.61712H17.0028V6.83759C17.0028 7.82492 16.1996 8.62813 15.2122 8.62813H3.31408C1.69886 8.62813 0.384766 9.94223 0.384766 11.5574V14.7089C0.384766 16.3241 1.69886 17.6382 3.31408 17.6382H10.1034C10.2755 19.1875 11.5929 20.3964 13.1873 20.3964H13.5321V17.6382H14.1778C17.6366 17.6382 20.4505 14.8242 20.4505 11.3654V5.61712H20.54C22.0242 5.61712 23.2317 4.40966 23.2317 2.92551V0.307617H21.0735ZM9.80019 15.082H8.46151V13.7433H9.80019V15.082Z" fill="#6E6FA6"/>
</svg>
