<svg
	width="24"
	height="12"
	viewBox="0 0 24 12"
	fill="none"
	xmlns="http://www.w3.org/2000/svg"
>
	<path
		d="M17.4849 0.341921C16.6538 0.336433 15.8315 0.51247 15.0755 0.857734C14.3195 1.203 13.648 1.70916 13.1079 2.34087L12.2604 3.3171L14.1521 5.50199L15.2678 4.21465C15.5416 3.89502 15.8818 3.6389 16.2647 3.46413C16.6476 3.28936 17.064 3.20014 17.4849 3.20267C17.8625 3.19668 18.2375 3.26588 18.5881 3.40624C18.9387 3.5466 19.2578 3.75532 19.527 4.02023C19.7961 4.28514 20.0098 4.60095 20.1557 4.94927C20.3016 5.29759 20.3768 5.67146 20.3768 6.04911C20.3768 6.42675 20.3016 6.80062 20.1557 7.14894C20.0098 7.49726 19.7961 7.81308 19.527 8.07799C19.2578 8.3429 18.9387 8.55161 18.5881 8.69197C18.2375 8.83233 17.8625 8.90153 17.4849 8.89555C17.0653 8.89832 16.6502 8.80953 16.2686 8.63536C15.8869 8.46119 15.5478 8.20585 15.2749 7.88713C11.1319 3.10325 13.1004 5.38398 10.4689 2.33729C9.92809 1.70669 9.25637 1.20151 8.50047 0.85691C7.74458 0.512311 6.92267 0.336572 6.09195 0.341921C4.57831 0.341921 3.12667 0.943212 2.05636 2.01352C0.986057 3.08382 0.384766 4.53547 0.384766 6.04911C0.384766 7.56275 0.986057 9.01439 2.05636 10.0847C3.12667 11.155 4.57831 11.7563 6.09195 11.7563C6.92304 11.7618 7.74531 11.5857 8.50131 11.2405C9.25731 10.8952 9.9288 10.389 10.4689 9.75735L11.3164 8.78112L9.42472 6.59622L8.30903 7.88356C8.0352 8.20319 7.69499 8.45931 7.3121 8.63408C6.92921 8.80885 6.51283 8.89808 6.09195 8.89555C5.71435 8.90153 5.33934 8.83233 4.98875 8.69197C4.63816 8.55161 4.319 8.3429 4.04986 8.07799C3.78071 7.81308 3.56697 7.49726 3.42107 7.14894C3.27517 6.80062 3.20003 6.42675 3.20003 6.04911C3.20003 5.67146 3.27517 5.29759 3.42107 4.94927C3.56697 4.60095 3.78071 4.28514 4.04986 4.02023C4.319 3.75532 4.63816 3.5466 4.98875 3.40624C5.33934 3.26588 5.71435 3.19668 6.09195 3.20267C6.51149 3.19989 6.92658 3.28868 7.30826 3.46285C7.68995 3.63702 8.02904 3.89237 8.30188 4.21108C12.4449 8.99496 10.4764 6.71423 13.1079 9.76092C13.7281 10.4996 14.5245 11.0699 15.4236 11.419C16.3227 11.7681 17.2953 11.8848 18.2515 11.7581C19.2076 11.6315 20.1163 11.2657 20.8936 10.6946C21.6708 10.1234 22.2913 9.36544 22.6978 8.49078C23.1042 7.61612 23.2834 6.65305 23.2188 5.69073C23.1542 4.72841 22.8478 3.79794 22.3281 2.98548C21.8083 2.17301 21.092 1.5048 20.2454 1.04271C19.3988 0.580621 18.4493 0.339587 17.4849 0.341921Z"
		fill="#6E6FA6"
	/>
</svg>
