<svg
	style="transform: scale(-1, 1)"
	width="122"
	height="64"
	viewBox="0 0 122 64"
	fill="none"
	xmlns="http://www.w3.org/2000/svg"
>
	<g clip-path="url(#clip0_302_74)">
		<path
			d="M61.1114 18.1689C35.0478 18.1689 17.3379 37.3008 17.3379 61.1071H105.219C105.219 37.3008 88.3446 18.1689 61.1114 18.1689Z"
			fill="url(#paint0_linear_302_74)"
		/>
		<path
			d="M17.8033 60.644C18.0312 37.3049 35.4771 18.6321 61.1114 18.6321C74.615 18.6321 85.5192 23.3728 93.0473 31.0352C100.479 38.5994 104.646 49.0367 104.754 60.644H17.8033Z"
			stroke="url(#paint1_linear_302_74)"
			stroke-opacity="0.5"
			stroke-width="0.926339"
		/>
		<path
			opacity="0.8"
			d="M113.556 57.5204C113.556 30.0505 93.4798 7.97461 61.0793 7.97461C30.0702 7.97461 9 30.0505 9 57.5204"
			stroke="url(#paint2_linear_302_74)"
			stroke-width="14.8214"
		/>
		<circle cx="61.6198" cy="59.9694" r="4.47914" fill="#5177AB" />
		<g filter="url(#filter0_dd_302_74)">
			<mask
				id="mask0_302_74"
				style="mask-type: alpha"
				maskUnits="userSpaceOnUse"
				x="20"
				y="21"
				width="83"
				height="38"
			>
				<path
					d="M100.417 58.1002C100.417 37.7538 83.0631 23.3486 61.6558 23.3486C40.2486 23.3486 22.8945 37.7538 22.8945 58.1002"
					stroke="black"
					stroke-width="4.63169"
				/>
			</mask>
			<g mask="url(#mask0_302_74)">
				<path
					d="M75.0553 38.8771L82.4745 26.0213C76.3521 22.4925 69.2446 20.46 61.6758 20.46V35.2859C66.5513 35.2859 71.115 36.6077 75.0553 38.8771Z"
					fill="#F66647"
				/>
				<path
					d="M48.2964 38.8766L40.8772 26.0332C34.5677 29.6867 29.3879 34.2469 25.7344 40.5564L38.5902 47.9756C40.9344 43.9106 44.2314 41.2333 48.2964 38.8766Z"
					fill="#F8D18A"
				/>
				<path
					d="M61.6757 35.2859V20.46C54.0944 20.46 46.9994 22.4925 40.877 26.0337L48.2962 38.8896C52.224 36.6077 56.8002 35.2859 61.6757 35.2859Z"
					fill="#F3C062"
				/>
				<path
					d="M84.8431 48.6774L97.6989 41.2582C94.0454 34.9363 88.7834 29.6742 82.4739 26.0332L75.0547 38.889C79.1072 41.2333 82.4989 44.6124 84.8431 48.6774Z"
					fill="#F85C67"
				/>
				<path
					d="M88.4337 62.0576H103.26C103.26 54.4762 101.227 47.3812 97.6859 41.2588L84.8301 48.678C87.1244 52.6058 88.4337 57.1821 88.4337 62.0576Z"
					fill="#CF323D"
				/>
				<path
					d="M34.9041 62.0576C34.9041 57.1821 36.2134 52.6183 38.4953 48.678L25.6519 41.2588C22.1106 47.3687 20.0781 54.4762 20.0781 62.0576H34.9041Z"
					fill="#02D0C8"
				/>
				<path
					d="M31.7252 44.0615L24.5645 39.7217"
					stroke="#483C4D"
					stroke-width="2.77902"
				/>
				<path
					d="M91.7103 44.4688L98.8711 40.1289"
					stroke="#473A4A"
					stroke-width="2.77902"
				/>
				<path
					d="M44.8419 32.0428L40.3945 24.9482"
					stroke="#45373D"
					stroke-width="2.77902"
				/>
				<path
					d="M77.9355 32.0428L82.3828 24.9482"
					stroke="#453843"
					stroke-width="2.77902"
				/>
				<path
					d="M61.5544 27.2346L61.7324 18.8633"
					stroke="#44373B"
					stroke-width="2.77902"
				/>
			</g>
		</g>
	</g>
	<defs>
		<filter
			id="filter0_dd_302_74"
			x="11.3147"
			y="13.6225"
			width="100.681"
			height="55.5942"
			filterUnits="userSpaceOnUse"
			color-interpolation-filters="sRGB"
		>
			<feFlood flood-opacity="0" result="BackgroundImageFix" />
			<feColorMatrix
				in="SourceAlpha"
				type="matrix"
				values="0 0 0 0 0 0 0 0 0 0 0 0 0 0 0 0 0 0 127 0"
				result="hardAlpha"
			/>
			<feOffset dy="1.85268" />
			<feGaussianBlur stdDeviation="4.63169" />
			<feComposite in2="hardAlpha" operator="out" />
			<feColorMatrix
				type="matrix"
				values="0 0 0 0 0.968627 0 0 0 0 0.694118 0 0 0 0 0.117647 0 0 0 0.4 0"
			/>
			<feBlend
				mode="normal"
				in2="BackgroundImageFix"
				result="effect1_dropShadow_302_74"
			/>
			<feColorMatrix
				in="SourceAlpha"
				type="matrix"
				values="0 0 0 0 0 0 0 0 0 0 0 0 0 0 0 0 0 0 127 0"
				result="hardAlpha"
			/>
			<feOffset dy="1.85268" />
			<feGaussianBlur stdDeviation="0.926339" />
			<feComposite in2="hardAlpha" operator="out" />
			<feColorMatrix
				type="matrix"
				values="0 0 0 0 0 0 0 0 0 0 0 0 0 0 0 0 0 0 0.1 0"
			/>
			<feBlend
				mode="normal"
				in2="effect1_dropShadow_302_74"
				result="effect2_dropShadow_302_74"
			/>
			<feBlend
				mode="normal"
				in="SourceGraphic"
				in2="effect2_dropShadow_302_74"
				result="shape"
			/>
		</filter>
		<linearGradient
			id="paint0_linear_302_74"
			x1="61.2785"
			y1="18.0019"
			x2="61.2785"
			y2="61.1071"
			gradientUnits="userSpaceOnUse"
		>
			<stop stop-color="#24203D" />
			<stop offset="0.630208" stop-color="#2D2B5B" />
			<stop offset="0.90625" stop-color="#332374" />
			<stop offset="1" stop-color="#3C3084" />
		</linearGradient>
		<linearGradient
			id="paint1_linear_302_74"
			x1="61.2785"
			y1="18.0019"
			x2="61.2785"
			y2="61.1071"
			gradientUnits="userSpaceOnUse"
		>
			<stop stop-color="#26396A" />
			<stop offset="1" stop-color="#4D7BAB" />
		</linearGradient>
		<linearGradient
			id="paint2_linear_302_74"
			x1="61.2781"
			y1="7.97461"
			x2="61.2781"
			y2="51.4945"
			gradientUnits="userSpaceOnUse"
		>
			<stop stop-color="#41358B" />
			<stop offset="1" stop-color="#2B4273" stop-opacity="0" />
		</linearGradient>
		<clipPath id="clip0_302_74">
			<rect width="122" height="64" fill="white" />
		</clipPath>
	</defs>
</svg>
