<svg
	width="5"
	height="31"
	viewBox="0 0 5 31"
	fill="none"
	xmlns="http://www.w3.org/2000/svg"
>
	<path
		d="M0.195479 28.5069C0.189071 28.4837 0.182663 28.4606 0.188023 28.4342L0.19554 28.3698C0.190242 28.2591 0.199914 28.1567 0.221355 28.0511L2.26941 0.339539C2.29738 -0.0171699 2.82688 -0.0266159 2.84918 0.328642L4.93014 27.9443C4.96002 28.0981 4.96636 28.2584 4.96951 28.407L4.97271 28.4186L4.97591 28.4302C4.98232 28.4533 4.97696 28.4798 4.9716 28.5062C4.90056 29.4855 4.22948 30.3567 3.21744 30.6368C1.9465 30.9885 0.628983 30.2564 0.282968 29.0061C0.226347 28.8473 0.205029 28.6787 0.195479 28.5069Z"
		fill="white"
	/>
</svg>
