<svg
	width="21"
	height="24"
	viewBox="0 0 21 24"
	fill="none"
	xmlns="http://www.w3.org/2000/svg"
>
	<path
		d="M19.3266 4.42456L12.075 0.408304C11.5933 0.140527 11.0512 0 10.5 0C9.94885 0 9.40678 0.140527 8.92502 0.408304L1.67344 4.42456C1.16853 4.70836 0.747736 5.12076 0.453815 5.61985C0.159894 6.11894 0.00331982 6.68694 0 7.26613V16.3618C0.00216245 16.9421 0.158189 17.5114 0.452169 18.0118C0.746149 18.5121 1.16756 18.9256 1.67344 19.2099L8.92502 23.2196C9.40793 23.4838 9.94955 23.6223 10.5 23.6223C11.0505 23.6223 11.5921 23.4838 12.075 23.2196L19.3266 19.2099C19.8325 18.9256 20.2539 18.5121 20.5479 18.0118C20.8419 17.5114 20.9979 16.9421 21 16.3618V7.26613C20.9967 6.68694 20.8402 6.11894 20.5462 5.61985C20.2523 5.12076 19.8315 4.70836 19.3266 4.42456ZM7.87502 14.439C7.87502 14.613 7.80588 14.7799 7.68281 14.903C7.55974 15.0261 7.39282 15.0952 7.21877 15.0952C7.10424 15.0945 6.99189 15.0639 6.89288 15.0063C6.79387 14.9487 6.71165 14.8663 6.65439 14.7671L3.93751 11.1577V14.439C3.93751 14.613 3.86837 14.7799 3.7453 14.903C3.62223 15.0261 3.45531 15.0952 3.28126 15.0952C3.10721 15.0952 2.94029 15.0261 2.81722 14.903C2.69415 14.7799 2.62501 14.613 2.62501 14.439V9.18895C2.62501 9.0149 2.69415 8.84798 2.81722 8.72491C2.94029 8.60184 3.10721 8.5327 3.28126 8.5327C3.40383 8.53428 3.52352 8.57015 3.62674 8.63627C3.72997 8.70238 3.81262 8.79608 3.86532 8.90676C3.85495 8.87713 3.84176 8.84857 3.82595 8.82145L6.56252 12.4702V9.18895C6.56252 9.0149 6.63166 8.84798 6.75473 8.72491C6.8778 8.60184 7.04472 8.5327 7.21877 8.5327C7.39282 8.5327 7.55974 8.60184 7.68281 8.72491C7.80588 8.84798 7.87502 9.0149 7.87502 9.18895V14.439ZM12.4688 11.1577C12.6428 11.1577 12.8097 11.2268 12.9328 11.3499C13.0559 11.473 13.125 11.6399 13.125 11.814C13.125 11.988 13.0559 12.1549 12.9328 12.278C12.8097 12.4011 12.6428 12.4702 12.4688 12.4702H10.5V14.439C10.5 14.613 10.4309 14.7799 10.3078 14.903C10.1847 15.0261 10.0178 15.0952 9.84377 15.0952C9.66972 15.0952 9.5028 15.0261 9.37973 14.903C9.25666 14.7799 9.18752 14.613 9.18752 14.439V9.18895C9.18752 9.0149 9.25666 8.84798 9.37973 8.72491C9.5028 8.60184 9.66972 8.5327 9.84377 8.5327H12.4688C12.6428 8.5327 12.8097 8.60184 12.9328 8.72491C13.0559 8.84798 13.125 9.0149 13.125 9.18895C13.125 9.363 13.0559 9.52992 12.9328 9.65299C12.8097 9.77606 12.6428 9.8452 12.4688 9.8452H10.5V11.1577H12.4688ZM17.7188 9.8452H17.0625V14.439C17.0625 14.613 16.9934 14.7799 16.8703 14.903C16.7473 15.0261 16.5803 15.0952 16.4063 15.0952C16.2322 15.0952 16.0653 15.0261 15.9422 14.903C15.8192 14.7799 15.75 14.613 15.75 14.439V9.8452H15.0938C14.9197 9.8452 14.7528 9.77606 14.6297 9.65299C14.5067 9.52992 14.4375 9.363 14.4375 9.18895C14.4375 9.0149 14.5067 8.84798 14.6297 8.72491C14.7528 8.60184 14.9197 8.5327 15.0938 8.5327H17.7188C17.8928 8.5327 18.0598 8.60184 18.1828 8.72491C18.3059 8.84798 18.375 9.0149 18.375 9.18895C18.375 9.363 18.3059 9.52992 18.1828 9.65299C18.0598 9.77606 17.8928 9.8452 17.7188 9.8452Z"
		fill="#EEEEFE"
	/>
</svg>
