<svg
	width="648"
	height="648"
	viewBox="0 0 648 648"
	fill="none"
	xmlns="http://www.w3.org/2000/svg"
>
	<path
		d="M324 648C502.94 648 648 502.94 648 324C648 145.06 502.94 0 324 0C145.06 0 0 145.06 0 324C0 502.94 145.06 648 324 648Z"
		fill="#201F48"
	/>
	<path
		d="M324 648C502.94 648 648 502.94 648 324C648 145.06 502.94 0 324 0C145.06 0 0 145.06 0 324C0 502.94 145.06 648 324 648Z"
		fill="url(#paint0_linear_166_1773)"
	/>
	<path
		d="M324 648C502.94 648 648 502.94 648 324C648 145.06 502.94 0 324 0C145.06 0 0 145.06 0 324C0 502.94 145.06 648 324 648Z"
		fill="url(#paint1_linear_166_1773)"
	/>
	<path
		d="M324 648C502.94 648 648 502.94 648 324C648 145.06 502.94 0 324 0C145.06 0 0 145.06 0 324C0 502.94 145.06 648 324 648Z"
		fill="url(#paint2_linear_166_1773)"
	/>
	<defs>
		<linearGradient
			id="paint0_linear_166_1773"
			x1="324"
			y1="0"
			x2="324"
			y2="648"
			gradientUnits="userSpaceOnUse"
		>
			<stop stop-color="#201F48" />
			<stop offset="0.494792" stop-color="#2A2954" />
			<stop offset="1" stop-color="#201F48" />
		</linearGradient>
		<linearGradient
			id="paint1_linear_166_1773"
			x1="648"
			y1="285"
			x2="-2.50799e-06"
			y2="283"
			gradientUnits="userSpaceOnUse"
		>
			<stop stop-color="#2B2167" />
			<stop offset="0.535628" stop-color="#242350" />
			<stop offset="1" stop-color="#2B2167" />
		</linearGradient>
		<linearGradient
			id="paint2_linear_166_1773"
			x1="648"
			y1="285"
			x2="-2.50799e-06"
			y2="283"
			gradientUnits="userSpaceOnUse"
		>
			<stop stop-color="#493B9A" />
			<stop offset="0.197917" stop-color="#302475" />
			<stop offset="0.5" stop-color="#24235C" />
			<stop offset="0.75" stop-color="#302475" />
			<stop offset="1" stop-color="#493B9A" />
		</linearGradient>
	</defs>
</svg>
