<svg width="22" height="24" viewBox="0 0 22 24" fill="none" xmlns="http://www.w3.org/2000/svg">
<path d="M14.9315 3.11523H6.62355C2.46957 3.11523 0.392578 5.19223 0.392578 9.34621V22.8467C0.392578 23.4178 0.859901 23.8852 1.43107 23.8852H14.9315C19.0855 23.8852 21.1625 21.8082 21.1625 17.6542V9.34621C21.1625 5.19223 19.0855 3.11523 14.9315 3.11523ZM14.4123 14.2791H11.5564V17.1349C11.5564 17.5607 11.2033 17.9138 10.7775 17.9138C10.3518 17.9138 9.99867 17.5607 9.99867 17.1349V14.2791H7.1428C6.71702 14.2791 6.36393 13.926 6.36393 13.5002C6.36393 13.0744 6.71702 12.7213 7.1428 12.7213H9.99867V9.86546C9.99867 9.43968 10.3518 9.08659 10.7775 9.08659C11.2033 9.08659 11.5564 9.43968 11.5564 9.86546V12.7213H14.4123C14.8381 12.7213 15.1911 13.0744 15.1911 13.5002C15.1911 13.926 14.8381 14.2791 14.4123 14.2791Z" fill="#F3C062"/>
<path d="M5.7699 14.3904H15.7883V11.7016H5.7699V14.3904ZM9.34265 8.05522V18.0368H12.2156V8.05522H9.34265Z" fill="#18174A"/>
</svg>
