<svg width="18" height="20" viewBox="0 0 18 20" fill="none" xmlns="http://www.w3.org/2000/svg">
<path d="M15.364 17.3965C11.8493 20.8678 6.15076 20.8678 2.63604 17.3965C0.878681 15.6608 0 13.386 0 11.1111C0 8.83625 0.878681 6.56139 2.63604 4.82571C2.63604 4.82571 3.37505 6.66663 5.62504 7.77774C5.62504 5.55552 6.18754 2.22218 8.98414 0C11.25 2.22223 13.6026 3.08606 15.364 4.82571C17.1214 6.56139 18 8.83625 18 11.1111C18 13.386 17.1213 15.6608 15.364 17.3965Z" fill="#F85C67"/>
<path d="M10.9749 14.9586C9.60806 16.3471 7.39196 16.3471 6.02513 14.9586C5.34171 14.2643 5 13.3544 5 12.4445C5 11.5345 5.34171 10.6246 6.02513 9.93029C6.02513 9.93029 6.31252 10.6667 7.18752 11.1111C7.18752 10.2222 7.40627 8.88887 8.49383 8C9.375 8.88889 10.2899 9.23443 10.9749 9.93029C11.6583 10.6246 12 11.5345 12 12.4445C12 13.3544 11.6583 14.2643 10.9749 14.9586Z" fill="#18174A"/>
</svg>
