<svg width="23" height="22" viewBox="0 0 23 22" fill="none" xmlns="http://www.w3.org/2000/svg">
<path d="M11.2257 0L13.5452 2.93344L17.0825 1.71972L17.4479 5.44153L21.0798 6.33286L19.375 9.66139L21.9485 12.3748L18.7148 14.2533L19.4128 17.9273L15.6768 17.7593L14.2777 21.2274L11.2257 19.0662L8.17364 21.2274L6.77449 17.7593L3.03857 17.9273L3.73653 14.2533L0.502844 12.3748L3.07632 9.66139L1.37154 6.33286L5.00347 5.44153L5.36886 1.71972L8.90613 2.93344L11.2257 0Z" fill="#D9D9D9"/>
<path d="M11.2257 0L13.5452 2.93344L17.0825 1.71972L17.4479 5.44153L21.0798 6.33286L19.375 9.66139L21.9485 12.3748L18.7148 14.2533L19.4128 17.9273L15.6768 17.7593L14.2777 21.2274L11.2257 19.0662L8.17364 21.2274L6.77449 17.7593L3.03857 17.9273L3.73653 14.2533L0.502844 12.3748L3.07632 9.66139L1.37154 6.33286L5.00347 5.44153L5.36886 1.71972L8.90613 2.93344L11.2257 0Z" fill="#02D0C8"/>
<path d="M11.2967 5.65039L12.5197 7.05644L14.3847 6.47468L14.5773 8.2586L16.4923 8.68584L15.5934 10.2813L16.9503 11.5818L15.2453 12.4822L15.6133 14.2432L13.6436 14.1627L12.9059 15.825L11.2967 14.7892L9.68751 15.825L8.94981 14.1627L6.98005 14.2432L7.34806 12.4822L5.6431 11.5818L6.99996 10.2813L6.10112 8.68584L8.01605 8.2586L8.2087 6.47468L10.0737 7.05644L11.2967 5.65039Z" fill="#D9D9D9"/>
<path d="M11.2967 5.65039L12.5197 7.05644L14.3847 6.47468L14.5773 8.2586L16.4923 8.68584L15.5934 10.2813L16.9503 11.5818L15.2453 12.4822L15.6133 14.2432L13.6436 14.1627L12.9059 15.825L11.2967 14.7892L9.68751 15.825L8.94981 14.1627L6.98005 14.2432L7.34806 12.4822L5.6431 11.5818L6.99996 10.2813L6.10112 8.68584L8.01605 8.2586L8.2087 6.47468L10.0737 7.05644L11.2967 5.65039Z" fill="#171649"/>
</svg>
